HIERARCHY
ROOT Hips
{
	OFFSET 0.000000 0.000000 0.000000
	CHANNELS 6 Xposition Yposition Zposition Zrotation Yrotation Xrotation 
	JOINT LowerBack
	{
		OFFSET 0.000000 0.000000 0.000000
		CHANNELS 3 Zrotation Yrotation Xrotation
		JOINT Spine
		{
			OFFSET 0.028270 2.035590 -0.193380
			CHANNELS 3 Zrotation Yrotation Xrotation
			JOINT Spine1
			{
				OFFSET 0.056720 2.048850 -0.042750
				CHANNELS 3 Zrotation Yrotation Xrotation
				JOINT Neck
				{
					OFFSET 0.000000 0.000000 0.000000
					CHANNELS 3 Zrotation Yrotation Xrotation
					JOINT Neck1
					{
						OFFSET -0.054170 1.746240 0.172020
						CHANNELS 3 Zrotation Yrotation Xrotation
						JOINT Head
						{
							OFFSET 0.104070 1.761360 -0.123970
							CHANNELS 3 Zrotation Yrotation Xrotation
							End Site
							{
								OFFSET 0.000000 0.000000 0.000000
							}
						}
					}
				}
				JOINT LeftShoulder
				{
					OFFSET 0.000000 0.000000 0.000000
					CHANNELS 3 Zrotation Yrotation Xrotation
					JOINT LeftArm
					{
						OFFSET 3.362410 1.200890 -0.311210
						CHANNELS 3 Zrotation Yrotation Xrotation
						JOINT LeftForeArm
						{
							OFFSET 4.983000 -0.000000 -0.000000
							CHANNELS 3 Zrotation Yrotation Xrotation
							JOINT LeftHand
							{
								OFFSET 3.483560 -0.000000 -0.000000
								CHANNELS 3 Zrotation Yrotation Xrotation
								JOINT LeftFingerBase
								{
									OFFSET 0.000000 0.000000 0.000000
									CHANNELS 3 Zrotation Yrotation Xrotation
									JOINT LeftHandIndex1
									{
										OFFSET 0.715260 -0.000000 -0.000000
										CHANNELS 3 Zrotation Yrotation Xrotation
										End Site
										{
											OFFSET 0.000000 0.000000 0.000000
										}
									}
								}
								JOINT LThumb
								{
									OFFSET 0.000000 0.000000 0.000000
									CHANNELS 3 Zrotation Yrotation Xrotation
									End Site
									{
										OFFSET 0.000000 0.000000 0.000000
									}
								}
							}
						}
					}
				}
				JOINT RightShoulder
				{
					OFFSET 0.000000 0.000000 0.000000
					CHANNELS 3 Zrotation Yrotation Xrotation
					JOINT RightArm
					{
						OFFSET -3.136600 1.374050 -0.404650
						CHANNELS 3 Zrotation Yrotation Xrotation
						JOINT RightForeArm
						{
							OFFSET -5.241900 -0.000000 -0.000000
							CHANNELS 3 Zrotation Yrotation Xrotation
							JOINT RightHand
							{
								OFFSET -3.444170 -0.000000 -0.000000
								CHANNELS 3 Zrotation Yrotation Xrotation
								JOINT RightFingerBase
								{
									OFFSET 0.000000 0.000000 0.000000
									CHANNELS 3 Zrotation Yrotation Xrotation
									JOINT RightHandIndex1
									{
										OFFSET -0.622530 -0.000000 -0.000000
										CHANNELS 3 Zrotation Yrotation Xrotation
										End Site
										{
											OFFSET 0.000000 0.000000 0.000000
										}
									}
								}
								JOINT RThumb
								{
									OFFSET 0.000000 0.000000 0.000000
									CHANNELS 3 Zrotation Yrotation Xrotation
									End Site
									{
										OFFSET 0.000000 0.000000 0.000000
									}
								}
							}
						}
					}
				}
			}
		}
	}
}
}
MOTION
Frames: 18
Frame Time: 0.008333
-2.284295 16.890179 -0.323286 3.098398 73.182967 5.240885 -3.510088 0.393000 -3.633532 -1.181329 0.500563 -2.912879 -4.901915 0.413415 2.751155 10.201014 -12.465056 -8.463491 -1.586805 -0.115589 -0.189014 0.000000 0.000000 0.000000 -3.554303 24.720783 1.416732 -81.516437 25.666400 -0.595694 -3.874395 -12.672578 -0.016300 -3.169056 6.831820 -0.189108 -0.069662 -0.134852 -0.000000 0.000000 0.000000 0.000000 0.000000 0.000000 0.000000 10.113005 -7.287459 -1.397821 50.093495 20.913868 15.389596 0.889609 59.021758 -0.000844 -1.750961 6.998886 -0.112703 0.041808 -0.241398 0.000000 0.000000 0.000000 0.000000 0.000000 0.000000 0.000000 
-2.122235 16.892153 -0.303054 3.723342 72.432528 5.647351 -3.799408 0.352702 -3.535564 -1.245559 0.486029 -2.907850 -4.939389 0.399886 2.719657 10.274497 -12.510303 -8.446306 -1.613754 -0.117828 -0.185369 0.000000 0.000000 0.000000 -3.536255 24.643020 1.383921 -81.370902 25.404868 -0.466789 -3.861732 -12.843519 -0.015554 -3.036923 6.565775 -0.174097 -0.069646 -0.133015 -0.000000 0.000000 0.000000 0.000000 0.000000 0.000000 0.000000 10.296516 -7.321332 -1.419110 50.625875 20.556297 15.744673 0.904901 59.152787 -0.000524 -1.705153 7.067480 -0.110891 0.042136 -0.241103 0.000000 0.000000 0.000000 0.000000 0.000000 0.000000 0.000000 
-1.963131 16.894763 -0.281552 4.340902 71.657369 6.040843 -4.091603 0.300233 -3.424908 -1.309179 0.459887 -2.902338 -4.975639 0.374780 2.682821 10.332888 -12.538047 -8.428573 -1.642826 -0.120224 -0.181571 0.000000 0.000000 0.000000 -3.518837 24.531916 1.354513 -81.198224 25.085096 -0.312611 -3.850590 -13.016755 -0.014859 -2.916126 6.321072 -0.160786 -0.069676 -0.130934 -0.000000 0.000000 0.000000 0.000000 0.000000 0.000000 0.000000 10.465144 -7.340008 -1.439904 51.251731 20.177051 16.099072 0.924788 59.193206 -0.000161 -1.657786 7.123706 -0.108675 0.042726 -0.240376 -0.000000 0.000000 0.000000 0.000000 0.000000 0.000000 0.000000 
-1.807097 16.897731 -0.258881 4.941633 70.860149 6.418906 -4.382640 0.236044 -3.307663 -1.371310 0.421974 -2.897201 -5.010180 0.337830 2.640505 10.375630 -12.552008 -8.410054 -1.673621 -0.122758 -0.177493 0.000000 0.000000 0.000000 -3.504519 24.381831 1.328139 -80.994785 24.716818 -0.118501 -3.841228 -13.200330 -0.014246 -2.815318 6.105937 -0.149875 -0.069705 -0.128682 -0.000000 0.000000 0.000000 0.000000 0.000000 0.000000 0.000000 10.617406 -7.348194 -1.459583 51.964722 19.776756 16.449646 0.949213 59.143724 0.000249 -1.607677 7.164898 -0.106058 0.043562 -0.239185 -0.000000 0.000000 0.000000 0.000000 0.000000 0.000000 0.000000 
-1.654182 16.900811 -0.235144 5.512900 70.043256 6.775238 -4.668281 0.161267 -3.189718 -1.431198 0.372838 -2.892516 -5.042790 0.289562 2.595869 10.405356 -12.555988 -8.392584 -1.705685 -0.125373 -0.173631 0.000000 0.000000 0.000000 -3.486040 24.204103 1.304805 -80.756495 24.290426 0.136623 -3.833931 -13.378464 -0.013721 -2.737320 5.920744 -0.141265 -0.069755 -0.126285 -0.000000 0.000000 0.000000 0.000000 0.000000 0.000000 0.000000 10.756337 -7.349938 -1.478640 52.752870 19.355845 16.792003 0.977625 59.008370 0.000696 -1.554188 7.189468 -0.103041 0.044581 -0.237513 0.000000 0.000000 0.000000 0.000000 0.000000 0.000000 0.000000 
-1.504352 16.903907 -0.210488 6.040343 69.206662 7.101045 -4.941398 0.078040 -3.076491 -1.487669 0.313867 -2.889254 -5.073762 0.231302 2.547831 10.423361 -12.555087 -8.374438 -1.738989 -0.128105 -0.169449 0.000000 0.000000 0.000000 -3.469163 23.987716 1.282845 -80.478027 23.823321 0.456533 -3.828513 -13.565364 -0.013290 -2.682520 5.768124 -0.134755 -0.069814 -0.123813 -0.000000 0.000000 0.000000 0.000000 0.000000 0.000000 0.000000 10.883619 -7.351300 -1.495627 53.606118 18.914926 17.123076 1.010339 58.788330 0.001187 -1.495723 7.198628 -0.099322 0.045778 -0.235354 0.000000 0.000000 0.000000 0.000000 0.000000 0.000000 0.000000 
-1.357589 16.906945 -0.185059 6.510657 68.350127 7.386604 -5.195514 -0.011236 -2.972033 -1.539784 0.246860 -2.887633 -5.103622 0.164868 2.497700 10.433091 -12.554044 -8.355457 -1.773554 -0.130965 -0.164896 0.000000 0.000000 0.000000 -3.452578 23.734515 1.260974 -80.154623 23.317868 0.845469 -3.824720 -13.756863 -0.012936 -2.644768 5.643649 -0.129946 -0.069929 -0.121294 -0.000000 0.000000 0.000000 0.000000 0.000000 0.000000 0.000000 11.004436 -7.357414 -1.509997 54.510772 18.455253 17.438500 1.047313 58.486045 0.001716 -1.432013 7.194859 -0.095202 0.047123 -0.232721 -0.000000 0.000000 0.000000 0.000000 0.000000 0.000000 0.000000 
-1.213748 16.910002 -0.158940 6.911893 67.472141 7.622430 -5.425568 -0.104176 -2.878936 -1.586961 0.173798 -2.887065 -5.133108 0.092339 2.449540 10.440002 -12.555510 -8.337226 -1.809401 -0.133931 -0.160459 0.000000 0.000000 0.000000 -3.427185 23.462127 1.238589 -79.782463 22.757691 1.310754 -3.822260 -13.928425 -0.012628 -2.611869 5.537244 -0.125837 -0.070202 -0.118703 -0.000000 0.000000 0.000000 0.000000 0.000000 0.000000 0.000000 11.126788 -7.370659 -1.522507 55.451401 17.976672 17.731308 1.088138 58.106035 0.002273 -1.361742 7.181241 -0.090483 0.048530 -0.229638 -0.000000 0.000000 0.000000 0.000000 0.000000 0.000000 0.000000 
-1.072836 16.913230 -0.132266 7.235673 66.570759 7.799834 -5.624828 -0.198237 -2.797803 -1.628257 0.096774 -2.887817 -5.163098 0.015862 2.402177 10.446665 -12.563093 -8.317717 -1.846877 -0.137066 -0.155572 0.000000 0.000000 0.000000 -3.398775 23.161737 1.213858 -79.357773 22.158877 1.835433 -3.820440 -14.090504 -0.012335 -2.569779 5.443475 -0.121624 -0.070687 -0.116076 -0.000000 0.000000 0.000000 0.000000 0.000000 0.000000 0.000000 11.255055 -7.395272 -1.531715 56.417195 17.480591 17.996761 1.133337 57.646607 0.002867 -1.284801 7.162151 -0.085363 0.050010 -0.226126 0.000000 0.000000 0.000000 0.000000 0.000000 0.000000 0.000000 
-0.934740 16.916829 -0.105111 7.476073 65.643841 7.911090 -5.789041 -0.291423 -2.727355 -1.663200 0.017588 -2.889170 -5.194484 -0.062627 2.357655 10.456896 -12.577515 -8.297242 -1.886260 -0.140384 -0.150380 0.000000 0.000000 0.000000 -3.363219 22.843383 1.186167 -78.878653 21.515310 2.408296 -3.818659 -14.229249 -0.012018 -2.500104 5.352760 -0.116213 -0.071486 -0.113396 -0.000000 0.000000 0.000000 0.000000 0.000000 0.000000 0.000000 11.395543 -7.431919 -1.537927 57.396318 16.967520 18.226437 1.182846 57.107870 0.003481 -1.201234 7.141460 -0.079743 0.051516 -0.222214 0.000000 0.000000 0.000000 0.000000 0.000000 0.000000 0.000000 
-0.799427 16.921056 -0.077586 7.630189 64.689869 7.950133 -5.913718 -0.382145 -2.664670 -1.691140 -0.062352 -2.890631 -5.227959 -0.141597 2.315916 10.472600 -12.599110 -8.274868 -1.927817 -0.143916 -0.144661 0.000000 0.000000 0.000000 -3.321943 22.507218 1.154848 -78.344407 20.833794 3.006413 -3.816281 -14.344061 -0.011641 -2.384819 5.258593 -0.108698 -0.072673 -0.110670 -0.000000 0.000000 0.000000 0.000000 0.000000 0.000000 0.000000 11.551569 -7.481323 -1.540753 58.380680 16.437874 18.412690 1.236943 56.487189 0.004118 -1.111450 7.122252 -0.073824 0.053040 -0.217917 0.000000 0.000000 0.000000 0.000000 0.000000 0.000000 0.000000 
-0.666862 16.926048 -0.049700 7.699726 63.707549 7.914559 -5.997593 -0.469614 -2.605877 -1.711960 -0.142192 -2.890877 -5.263916 -0.220028 2.280066 10.496305 -12.625351 -8.252389 -1.971517 -0.147623 -0.139002 0.000000 0.000000 0.000000 -3.267048 22.173087 1.120560 -77.756044 20.098213 3.620389 -3.812927 -14.412287 -0.011173 -2.206423 5.152419 -0.098181 -0.074343 -0.107854 -0.000000 0.000000 0.000000 0.000000 0.000000 0.000000 0.000000 11.726885 -7.540579 -1.541694 59.362193 15.891345 18.543489 1.295197 55.784934 0.004764 -1.016311 7.105903 -0.067607 0.054521 -0.213262 -0.000000 0.000000 0.000000 0.000000 0.000000 0.000000 0.000000 
-0.537000 16.932000 -0.021499 7.685481 62.696799 7.801415 -6.036539 -0.553274 -2.546875 -1.724824 -0.221553 -2.890096 -5.302665 -0.297497 2.246393 10.525655 -12.655563 -8.226874 -2.017645 -0.151568 -0.132566 0.000000 0.000000 0.000000 -3.207509 21.823155 1.082850 -77.114337 19.338124 4.210533 -3.808258 -14.455675 -0.010597 -1.952925 5.034291 -0.084360 -0.076506 -0.104997 -0.000000 0.000000 0.000000 0.000000 0.000000 0.000000 0.000000 11.918711 -7.610210 -1.539185 60.338973 15.328752 18.611330 1.358262 54.994255 0.005410 -0.918847 7.093809 -0.061291 0.056026 -0.208254 0.000000 0.000000 0.000000 0.000000 0.000000 0.000000 0.000000 
-0.409828 16.938919 0.007088 7.595150 61.658730 7.614751 -6.032073 -0.633783 -2.483276 -1.729915 -0.300864 -2.886839 -5.344097 -0.374304 2.218265 10.561473 -12.686127 -8.201234 -2.065897 -0.155672 -0.126239 0.000000 0.000000 0.000000 -3.134201 21.480680 1.043265 -76.421396 18.535464 4.776010 -3.802296 -14.452460 -0.009903 -1.616072 4.899351 -0.067237 -0.079208 -0.102056 -0.000000 0.000000 0.000000 0.000000 0.000000 0.000000 0.000000 12.128095 -7.686286 -1.535259 61.306225 14.749341 18.602804 1.425392 54.117514 0.006039 -0.821307 7.083853 -0.054977 0.057506 -0.202905 -0.000000 0.000000 0.000000 0.000000 0.000000 0.000000 0.000000 
-0.285313 16.946740 0.036094 7.435964 60.596594 7.359335 -5.983779 -0.712029 -2.411751 -1.726912 -0.380983 -2.881388 -5.388032 -0.451329 2.192169 10.600006 -12.716002 -8.173424 -2.116272 -0.159965 -0.119403 0.000000 0.000000 0.000000 -3.053599 21.129208 1.002159 -75.677484 17.719914 5.286088 -3.795439 -14.424934 -0.009104 -1.196727 4.750046 -0.047310 -0.082415 -0.099086 -0.000000 0.000000 0.000000 0.000000 0.000000 0.000000 0.000000 12.349765 -7.769082 -1.528676 62.264392 14.153935 18.509859 1.496862 53.150708 0.006637 -0.729008 7.074927 -0.049165 0.059044 -0.197226 0.000000 0.000000 0.000000 0.000000 0.000000 0.000000 0.000000 
-0.163482 16.955323 0.065673 7.220079 59.515044 7.045334 -5.895315 -0.789766 -2.329688 -1.716237 -0.463350 -2.873303 -5.433984 -0.530020 2.168235 10.639193 -12.743453 -8.144559 -2.168389 -0.164395 -0.112358 0.000000 0.000000 0.000000 -2.963122 20.772955 0.960834 -74.883008 16.897485 5.735874 -3.788352 -14.375412 -0.008217 -0.702154 4.586761 -0.025278 -0.086091 -0.096101 -0.000000 0.000000 0.000000 0.000000 0.000000 0.000000 0.000000 12.580407 -7.857434 -1.519962 63.212034 13.542901 18.323000 1.572125 52.096153 0.007191 -0.647418 7.064604 -0.043956 0.060668 -0.191245 0.000000 0.000000 0.000000 0.000000 0.000000 0.000000 0.000000 
-0.044285 16.964363 0.096050 6.961424 58.420481 6.686185 -5.772020 -0.869124 -2.235548 -1.698616 -0.549692 -2.862545 -5.481423 -0.612164 2.145542 10.676520 -12.768358 -8.115086 -2.221841 -0.168923 -0.105187 0.000000 0.000000 0.000000 -2.862830 20.408575 0.920357 -74.037081 16.083026 6.120427 -3.781969 -14.315905 -0.007270 -0.146986 4.411856 -0.002248 -0.090172 -0.093141 -0.000000 0.000000 0.000000 0.000000 0.000000 0.000000 0.000000 12.815900 -7.952150 -1.508955 64.148237 12.916896 18.035156 1.650675 50.957577 0.007685 -0.583081 7.050648 -0.039848 0.062436 -0.184998 0.000000 0.000000 0.000000 0.000000 0.000000 0.000000 0.000000 
0.072238 16.973527 0.127450 6.675608 57.320111 6.296971 -5.621036 -0.952533 -2.128765 -1.675142 -0.641916 -2.848939 -5.529754 -0.699733 2.124314 10.710287 -12.791671 -8.086586 -2.276068 -0.173482 -0.098291 0.000000 0.000000 0.000000 -2.751904 20.039108 0.881788 -73.136541 15.284641 6.450357 -3.777216 -14.255355 -0.006298 0.448459 4.227390 0.020486 -0.094578 -0.090244 -0.000000 0.000000 0.000000 0.000000 0.000000 0.000000 0.000000 13.053288 -8.054790 -1.495926 65.071003 12.277957 17.641169 1.731707 49.741904 0.008103 -0.542455 7.031010 -0.037242 0.064387 -0.178534 0.000000 0.000000 0.000000 0.000000 0.000000 0.000000 0.000000 
